<svg width="10" height="32" viewBox="0 0 10 32" fill="none" xmlns="http://www.w3.org/2000/svg">
<path d="M8.4739 8.57095H1.4412C1.19753 8.57095 1 8.76848 1 9.01215V30.2647C1 30.5083 1.19753 30.7059 1.4412 30.7059H8.4739C8.71756 30.7059 8.91509 30.5083 8.91509 30.2647V9.01215C8.91509 8.76848 8.71756 8.57095 8.4739 8.57095Z" stroke="black" stroke-opacity="0.75" stroke-miterlimit="10"/>
<path d="M7.43566 1H2.6016C2.35793 1 2.1604 1.19753 2.1604 1.4412V7.6768C2.1604 7.92047 2.35793 8.118 2.6016 8.118H7.43566C7.67933 8.118 7.87686 7.92047 7.87686 7.6768V1.4412C7.87686 1.19753 7.67933 1 7.43566 1Z" stroke="black" stroke-opacity="0.75" stroke-miterlimit="10"/>
<path d="M6.93705 8.11798H2.97656V8.57094H6.93705V8.11798Z" stroke="black" stroke-opacity="0.75" stroke-miterlimit="10"/>
<path d="M8.4739 8.57095H1.4412C1.19753 8.57095 1 8.76848 1 9.01215V30.2647C1 30.5083 1.19753 30.7059 1.4412 30.7059H8.4739C8.71756 30.7059 8.91509 30.5083 8.91509 30.2647V9.01215C8.91509 8.76848 8.71756 8.57095 8.4739 8.57095Z" stroke="black" stroke-opacity="0.75" stroke-miterlimit="10"/>
<path d="M7.43566 1H2.6016C2.35793 1 2.1604 1.19753 2.1604 1.4412V7.6768C2.1604 7.92046 2.35793 8.118 2.6016 8.118H7.43566C7.67933 8.118 7.87686 7.92046 7.87686 7.6768V1.4412C7.87686 1.19753 7.67933 1 7.43566 1Z" stroke="black" stroke-opacity="0.75" stroke-miterlimit="10"/>
<path d="M6.93705 8.11798H2.97656V8.57094H6.93705V8.11798Z" stroke="black" stroke-opacity="0.75" stroke-miterlimit="10"/>
</svg>
