<svg width="13" height="32" viewBox="0 0 13 32" fill="none" xmlns="http://www.w3.org/2000/svg">
<path d="M8.85341 5.73331H3.8208V7.59772H8.85341V5.73331Z" stroke="#BFBFBF" stroke-miterlimit="10"/>
<path d="M8.85332 7.59772H3.82071L1.07592 7.74372L1 29.9999L4.18425 30.708H8.68542L11.8697 29.9634V7.74372L8.85332 7.59772Z" stroke="#BFBFBF" stroke-miterlimit="10"/>
<path d="M11.1455 1H1.82636L1 1.78256V5.09967L1.62196 5.73331H11.22L11.8697 5.15515V1.72562L11.1455 1Z" stroke="#BFBFBF" stroke-miterlimit="10"/>
<path d="M8.85341 5.73331H3.8208V7.59772H8.85341V5.73331Z" stroke="black" stroke-miterlimit="10"/>
<path d="M8.85332 7.59772H3.82071L1.07592 7.74372L1 29.9999L4.18425 30.708H8.68542L11.8697 29.9634V7.74372L8.85332 7.59772Z" stroke="black" stroke-miterlimit="10"/>
<path d="M11.1455 1H1.82636L1 1.78256V5.09967L1.62196 5.73331H11.22L11.8697 5.15515V1.72562L11.1455 1Z" fill="black" stroke="black" stroke-miterlimit="10"/>
</svg>
