<svg width="7" height="31" viewBox="0 0 7 31" fill="none" xmlns="http://www.w3.org/2000/svg">
<path d="M6.46565 7.47351V29.5392C6.44568 29.5561 6.44568 29.5807 6.44107 29.6037C6.41496 29.7312 6.34739 29.8295 6.23834 29.9017C6.18151 29.9386 6.12008 29.9601 6.05557 29.9739C6.01103 29.9831 6.05097 29.9923 6.05557 30.0015H0.372883C0.385169 29.9939 0.39592 29.9877 0.414351 29.977C0.394385 29.9724 0.383634 29.9693 0.371347 29.9662C0.147111 29.9278 -0.0156906 29.7143 0.00120386 29.5055C0.00734731 29.4287 0.00427558 29.3519 0.00427558 29.2751C0.00427558 25.6213 0.00427558 21.9674 0.00427558 18.3136C0.00427558 14.7412 0.00427558 11.1688 0.00273972 7.59484C0.00273972 7.48426 0.0150266 7.38289 0.0810687 7.29227C0.104107 7.26002 0.0979632 7.23545 0.0764611 7.20473C0.0211701 7.12794 0.00120386 7.04039 0.00120386 6.94517C0.00273972 5.81631 0.00734731 4.68899 0.00120386 3.56013C0.00120386 3.34204 0.153254 3.13469 0.382098 3.09323C0.471178 3.07633 0.471178 3.0748 0.471178 2.98111C0.471178 2.09952 0.471178 1.21947 0.471178 0.33789C0.471178 0.308708 0.471178 0.277991 0.472714 0.24881C0.483465 0.136692 0.546435 0.0568269 0.643194 0.033789C0.675447 0.0261097 0.707701 0.0261097 0.747633 0.0230379C0.712308 0.00921517 0.680055 0.0168945 0.655481 0C2.35415 0 4.05127 0 5.74994 0C5.73151 0.00614345 5.71461 0.0122869 5.68543 0.0230379C5.71154 0.0230379 5.72536 0.0230379 5.74072 0.0230379C5.89124 0.033789 5.96956 0.11519 5.9711 0.265704C5.9711 0.284135 5.9711 0.304101 5.9711 0.322531C5.9711 1.2118 5.9711 2.09952 5.9711 2.98879C5.9711 3.04715 5.98339 3.0748 6.04789 3.08555C6.24602 3.12241 6.38271 3.23606 6.43954 3.43419C6.44415 3.45108 6.43954 3.47566 6.46718 3.47873V6.96053C6.438 7.0066 6.45029 7.06804 6.41957 7.10951C6.34739 7.20934 6.3566 7.30456 6.42418 7.40132C6.44107 7.42436 6.42879 7.46276 6.46718 7.47197L6.46565 7.47351ZM0.31452 18.5363C0.31452 22.0657 0.31452 25.5967 0.31452 29.1261C0.31452 29.2505 0.31452 29.3734 0.31452 29.4978C0.31452 29.5961 0.371347 29.656 0.471178 29.6621C0.498823 29.6636 0.526469 29.6621 0.554114 29.6621C2.33725 29.6621 4.12039 29.6621 5.90352 29.6621C5.93117 29.6621 5.95881 29.6621 5.98646 29.6621C6.05864 29.6575 6.10472 29.6222 6.12929 29.5531C6.14619 29.5039 6.14465 29.4517 6.14465 29.401C6.14465 27.7561 6.14465 26.1127 6.14465 24.4678C6.14465 19.0032 6.14465 13.5386 6.14465 8.07403C6.14465 7.92198 6.14619 7.77146 6.14465 7.61941C6.14312 7.46122 6.09397 7.41361 5.93578 7.41361C4.1296 7.41361 2.32189 7.41361 0.515718 7.41361C0.354452 7.41361 0.316056 7.452 0.316056 7.61327C0.316056 11.2548 0.316056 14.8948 0.316056 18.5363H0.31452ZM3.22805 7.08493C4.13267 7.08493 5.0373 7.08493 5.94038 7.08493C6.08936 7.08493 6.13851 7.03732 6.14312 6.88681C6.14312 6.86991 6.14312 6.85302 6.14312 6.83612C6.14312 5.90386 6.14312 4.97159 6.14158 4.04085C6.14158 3.88727 6.14465 3.73368 6.14158 3.5801C6.13851 3.45415 6.07093 3.39272 5.94653 3.39426C5.85284 3.39426 5.75915 3.40654 5.66546 3.40654C4.07277 3.40654 2.47855 3.40654 0.885861 3.40654C0.752241 3.40654 0.617085 3.39579 0.483465 3.39579C0.371347 3.39579 0.312984 3.45723 0.312984 3.56627C0.312984 4.68131 0.312984 5.79635 0.312984 6.91292C0.312984 7.03579 0.35906 7.0834 0.481929 7.08647C0.521861 7.08647 0.563329 7.08647 0.603262 7.08647C1.47717 7.08647 2.35261 7.08647 3.22652 7.08647L3.22805 7.08493ZM3.21884 3.06405C3.99905 3.06405 4.77927 3.06405 5.56103 3.06405C5.65471 3.06405 5.65625 3.06405 5.65625 2.97343C5.65625 2.1241 5.65625 1.2763 5.65625 0.42697C5.65625 0.336354 5.65318 0.334818 5.56256 0.334818C4.00366 0.334818 2.44476 0.334818 0.885861 0.334818C0.821354 0.334818 0.789101 0.366559 0.789101 0.430041C0.789101 1.2763 0.789101 2.12256 0.789101 2.97036C0.789101 3.03384 0.820842 3.06558 0.884325 3.06558C1.66301 3.06558 2.44169 3.06558 3.21884 3.06558V3.06405Z" fill="black" fill-opacity="0.15"/>
<path d="M2.62134 1.70942C2.62134 1.37307 2.88858 1.10736 3.22954 1.10736C3.55361 1.10736 3.83006 1.38382 3.8316 1.70788C3.8316 2.0427 3.55361 2.31916 3.21879 2.31916C2.89165 2.31916 2.62287 2.0427 2.62134 1.70942Z" fill="black" fill-opacity="0.15"/>
</svg>
